<mxfile host="app.diagrams.net" modified="2023-03-23T12:09:15.172Z" agent="5.0 (Windows)" etag="tv0K96M2GqsTBP1tCBuS" version="21.0.10" type="github">
  <diagram name="Strona-1" id="C9bMfWwFiaB97e9MnAd_">
    <mxGraphModel dx="1434" dy="782" grid="1" gridSize="10" guides="1" tooltips="1" connect="1" arrows="1" fold="1" page="1" pageScale="1" pageWidth="827" pageHeight="1169" math="0" shadow="0">
      <root>
        <mxCell id="0" />
        <mxCell id="1" parent="0" />
        <mxCell id="OVB6tUFibEP5sXagNRfJ-4" style="edgeStyle=orthogonalEdgeStyle;rounded=0;orthogonalLoop=1;jettySize=auto;html=1;exitX=0.5;exitY=1;exitDx=0;exitDy=0;entryX=0.5;entryY=0;entryDx=0;entryDy=0;" edge="1" parent="1" source="OVB6tUFibEP5sXagNRfJ-2" target="OVB6tUFibEP5sXagNRfJ-3">
          <mxGeometry relative="1" as="geometry" />
        </mxCell>
        <mxCell id="OVB6tUFibEP5sXagNRfJ-2" value="Start" style="ellipse;whiteSpace=wrap;html=1;" vertex="1" parent="1">
          <mxGeometry x="354" y="70" width="120" height="80" as="geometry" />
        </mxCell>
        <mxCell id="OVB6tUFibEP5sXagNRfJ-6" style="edgeStyle=orthogonalEdgeStyle;rounded=0;orthogonalLoop=1;jettySize=auto;html=1;exitX=0.5;exitY=1;exitDx=0;exitDy=0;entryX=0.5;entryY=0;entryDx=0;entryDy=0;" edge="1" parent="1" source="OVB6tUFibEP5sXagNRfJ-3" target="OVB6tUFibEP5sXagNRfJ-5">
          <mxGeometry relative="1" as="geometry" />
        </mxCell>
        <mxCell id="OVB6tUFibEP5sXagNRfJ-3" value="podaj a" style="rounded=0;whiteSpace=wrap;html=1;" vertex="1" parent="1">
          <mxGeometry x="354" y="180" width="120" height="60" as="geometry" />
        </mxCell>
        <mxCell id="OVB6tUFibEP5sXagNRfJ-7" style="edgeStyle=orthogonalEdgeStyle;rounded=0;orthogonalLoop=1;jettySize=auto;html=1;exitX=1;exitY=0.5;exitDx=0;exitDy=0;" edge="1" parent="1" source="OVB6tUFibEP5sXagNRfJ-5">
          <mxGeometry relative="1" as="geometry">
            <mxPoint x="560" y="360" as="targetPoint" />
          </mxGeometry>
        </mxCell>
        <mxCell id="OVB6tUFibEP5sXagNRfJ-8" style="edgeStyle=orthogonalEdgeStyle;rounded=0;orthogonalLoop=1;jettySize=auto;html=1;exitX=0;exitY=0.5;exitDx=0;exitDy=0;" edge="1" parent="1" source="OVB6tUFibEP5sXagNRfJ-5">
          <mxGeometry relative="1" as="geometry">
            <mxPoint x="280" y="360" as="targetPoint" />
          </mxGeometry>
        </mxCell>
        <mxCell id="OVB6tUFibEP5sXagNRfJ-5" value="a mod 2 = 0" style="rhombus;whiteSpace=wrap;html=1;" vertex="1" parent="1">
          <mxGeometry x="359" y="270" width="110" height="80" as="geometry" />
        </mxCell>
        <mxCell id="OVB6tUFibEP5sXagNRfJ-10" value="Nie" style="text;html=1;align=center;verticalAlign=middle;resizable=0;points=[];autosize=1;strokeColor=none;fillColor=none;" vertex="1" parent="1">
          <mxGeometry x="300" y="285" width="40" height="30" as="geometry" />
        </mxCell>
        <mxCell id="OVB6tUFibEP5sXagNRfJ-11" value="Tak" style="text;html=1;align=center;verticalAlign=middle;resizable=0;points=[];autosize=1;strokeColor=none;fillColor=none;" vertex="1" parent="1">
          <mxGeometry x="490" y="285" width="40" height="30" as="geometry" />
        </mxCell>
        <mxCell id="OVB6tUFibEP5sXagNRfJ-15" style="edgeStyle=orthogonalEdgeStyle;rounded=0;orthogonalLoop=1;jettySize=auto;html=1;exitX=0.5;exitY=1;exitDx=0;exitDy=0;entryX=0.5;entryY=0;entryDx=0;entryDy=0;" edge="1" parent="1" source="OVB6tUFibEP5sXagNRfJ-12" target="OVB6tUFibEP5sXagNRfJ-14">
          <mxGeometry relative="1" as="geometry" />
        </mxCell>
        <mxCell id="OVB6tUFibEP5sXagNRfJ-12" value="wyswietl &quot;Liczba jest nieparzysta&quot;" style="rounded=0;whiteSpace=wrap;html=1;" vertex="1" parent="1">
          <mxGeometry x="220" y="360" width="120" height="60" as="geometry" />
        </mxCell>
        <mxCell id="OVB6tUFibEP5sXagNRfJ-16" style="edgeStyle=orthogonalEdgeStyle;rounded=0;orthogonalLoop=1;jettySize=auto;html=1;exitX=0.5;exitY=1;exitDx=0;exitDy=0;" edge="1" parent="1" source="OVB6tUFibEP5sXagNRfJ-13">
          <mxGeometry relative="1" as="geometry">
            <mxPoint x="420" y="480" as="targetPoint" />
          </mxGeometry>
        </mxCell>
        <mxCell id="OVB6tUFibEP5sXagNRfJ-13" value="wyswietl &quot;Liczba jest parzysta&quot;" style="rounded=0;whiteSpace=wrap;html=1;" vertex="1" parent="1">
          <mxGeometry x="500" y="360" width="120" height="60" as="geometry" />
        </mxCell>
        <mxCell id="OVB6tUFibEP5sXagNRfJ-14" value="Stop" style="ellipse;whiteSpace=wrap;html=1;" vertex="1" parent="1">
          <mxGeometry x="359" y="480" width="120" height="80" as="geometry" />
        </mxCell>
      </root>
    </mxGraphModel>
  </diagram>
</mxfile>
